<svg width="189" height="156" viewBox="0 0 189 156" fill="none" xmlns="http://www.w3.org/2000/svg">
<g clip-path="url(#clip0_320_1065)">
<path d="M134.106 4.33899L141.211 50.7081L171.991 47.6781L184.703 105.382L12.2511 128.929L1.33033 24.7082L134.106 4.33899Z" fill="#CCFFBC"/>
<path d="M39.3139 76.9094L54.3508 74.6895L60.0402 113.157L45.0033 115.376L43.243 103.466L36.6362 104.444L38.3964 116.355L23.3595 118.574L17.6701 80.1074L32.707 77.8875L34.4673 89.7981L41.0741 88.82L39.3139 76.9094Z" fill="#3D3F4A"/>
<path d="M60.9068 73.7171L75.9776 71.4934L78.9045 91.3082C79.2933 93.9429 80.4139 95.0669 82.625 94.7427C84.8361 94.4185 85.6639 92.9997 85.275 90.365L82.3482 70.5503L97.3767 68.3313L100.514 89.5686C102.107 100.368 97.6664 108.677 84.9582 110.551C72.2923 112.42 65.6298 105.764 64.0356 94.9553L60.8983 73.718L60.9068 73.7171Z" fill="#3D3F4A"/>
<path d="M134.371 82.524C138.991 82.6493 143.939 84.937 144.754 90.4675C145.52 95.627 142.692 100.949 130.769 102.709L109.64 105.833L103.951 67.3655L125.079 64.2421C136.151 62.611 140.436 66.8723 141.202 72.0403C142.017 77.5708 138.633 80.9781 134.36 82.4226L134.371 82.524ZM119.35 77.3665L119.867 80.8425L125.301 80.0383C126.82 79.8171 127.246 78.9396 127.1 77.9462C126.954 76.9443 126.303 76.3411 124.75 76.566L119.35 77.3665ZM127.393 90.9278C129.258 90.6509 129.662 89.8955 129.516 88.8937C129.364 87.8411 128.708 87.1872 126.961 87.4423L120.978 88.325L121.495 91.801L127.402 90.9269L127.393 90.9278Z" fill="#3D3F4A"/>
<path d="M163.464 83.6614L151.499 85.4268L147.798 71.6539L146.242 61.115L161.473 58.8649L163.029 69.4037L163.473 83.6605L163.464 83.6614ZM157.67 86.0803C152 86.9195 150.384 89.9579 150.971 93.9053C151.558 97.8527 153.977 100.303 159.655 99.4632C165.402 98.6155 166.984 95.5808 166.397 91.6334C165.809 87.6776 163.425 85.2316 157.679 86.0793L157.67 86.0803Z" fill="#3D3F4A"/>
<path d="M36.3308 29.0443L53.6711 26.4813L59.4926 65.8235L46.0926 67.8006L43.4318 49.5219L39.8566 68.7201L34.3802 69.529L25.3517 52.1419L28.1367 70.458L14.7028 72.4388L8.88121 33.0966L26.2215 30.5337L33.5177 44.9315L36.3299 29.0358L36.3308 29.0443Z" fill="#3D3F4A"/>
<path d="M87.7859 21.4358L105.126 18.8729L110.948 58.2151L97.5476 60.1921L94.8869 41.9135L91.3117 61.1117L85.8353 61.9206L76.8058 44.525L79.5908 62.8411L66.1569 64.8219L60.3353 25.4797L77.6756 22.9168L84.9719 37.3146L87.784 21.4189L87.7859 21.4358Z" fill="#3D3F4A"/>
<path d="M132.584 55.0265L117.615 57.2388L111.793 17.8966L126.762 15.6843L132.584 55.0265Z" fill="#3D3F4A"/>
<path d="M20.5192 129.921L108.558 109.042L113.62 133.384L23.3688 154.571" fill="#3D3F4A"/>
<path d="M32.1801 133.64C35.6824 132.821 37.2155 134.258 37.9161 137.226C38.6336 140.269 37.902 142.242 34.3912 143.062L32.8701 143.42L33.4943 146.089L29.4319 147.039L26.5881 134.95L32.1716 133.641L32.1801 133.64ZM33.3033 139.162C33.7796 139.049 33.8849 138.763 33.7869 138.347C33.6888 137.93 33.4685 137.723 32.9922 137.836L31.6377 138.15L31.9489 139.476L33.3033 139.162Z" fill="#CCFFBC"/>
<path d="M50.4145 140.535C50.5975 141.328 50.7463 141.662 51.0552 141.969L46.6003 143.015C46.3319 142.763 46.0983 142.361 45.9172 141.585L45.6259 140.36C45.4826 139.769 45.3187 139.607 44.9676 139.689L43.8391 139.952L44.6604 143.463L40.6318 144.41L37.788 132.321L43.8817 130.895C47.0245 130.159 48.4878 131.51 48.9782 133.594C49.4704 135.695 48.522 136.879 47.3926 137.442L47.3964 137.476C49.0342 137.318 49.7941 137.978 50.2694 140.004L50.3976 140.537L50.4145 140.535ZM44.5898 136.463C45.0831 136.348 45.1884 136.062 45.1007 135.662C45.0026 135.245 44.7841 135.055 44.2909 135.17L42.8113 135.515L43.1187 136.807L44.5983 136.462L44.5898 136.463Z" fill="#CCFFBC"/>
<path d="M50.4307 136.075L50.2836 135.45C49.4802 132.023 50.6152 128.979 54.5101 128.064C58.4219 127.148 60.7893 129.373 61.6011 132.799L61.7482 133.424C62.5516 136.851 61.4166 139.896 57.5132 140.811C53.6099 141.727 51.2425 139.501 50.4391 136.074L50.4307 136.075ZM57.3308 134.192L57.2988 134.058C57.0895 133.183 56.5235 132.648 55.6378 132.858C54.7436 133.069 54.4897 133.791 54.6906 134.667L54.7226 134.8C54.932 135.675 55.481 136.213 56.3751 136.001C57.2693 135.79 57.5401 135.067 57.3299 134.183L57.3308 134.192Z" fill="#CCFFBC"/>
<path d="M66.686 132.402C66.868 133.109 67.1655 133.392 67.7256 133.261C68.311 133.127 68.4483 132.744 68.3125 132.143L67.8694 130.25L62.5118 131.508L61.4011 126.789L70.9961 124.536L72.5991 131.356C73.3986 134.749 72.4564 137.293 68.8797 138.137C65.2691 138.986 63.4074 137.217 62.4391 133.39L66.6766 132.394L66.686 132.402Z" fill="#CCFFBC"/>
<path d="M75.1699 136.322L72.3261 124.233L81.4035 122.106L82.2908 125.9L77.2335 127.081L77.4607 128.04L82.3674 126.892L82.9596 129.427L78.0528 130.575L78.282 131.55L83.4061 130.353L84.3057 134.18L75.1614 136.323L75.1699 136.322Z" fill="#CCFFBC"/>
<path d="M83.8174 127.586C83.014 124.159 84.1405 121.115 88.0354 120.201C91.839 119.314 93.9662 121.155 95.0266 124.733L90.63 125.764C90.4001 125.242 89.967 124.819 89.1556 125.004C88.2859 125.204 88.0245 125.935 88.2338 126.81L88.2659 126.943C88.4752 127.818 89.0242 128.356 89.9014 128.147C90.7118 127.953 90.9225 127.382 90.8931 126.812L95.2896 125.782C95.9321 129.458 94.8497 132.051 91.047 132.947C87.1606 133.861 84.7848 131.636 83.9814 128.209L83.8343 127.584L83.8174 127.586Z" fill="#CCFFBC"/>
<path d="M95.7247 123.919L94.5763 119.016L104.782 116.626L105.931 121.529L102.988 122.217L104.675 129.404L100.379 130.415L98.6925 123.228L95.7247 123.919Z" fill="#CCFFBC"/>
</g>
<defs>
<clipPath id="clip0_320_1065">
<rect width="174" height="137" fill="white" transform="translate(0 19.3294) rotate(-6.37808)"/>
</clipPath>
</defs>
</svg>
